<svg version="1.2" xmlns="http://www.w3.org/2000/svg" viewBox="0 0 1298 475" width="1298" height="475">
	<title>RMC_Sport_RVB_sanscadre_V1-ai</title>
	<defs>
		<linearGradient id="g1" x1="463.8" y1="450.6" x2="21.8" y2="450.6" gradientUnits="userSpaceOnUse">
			<stop offset="0" stop-color="#14468a"/>
			<stop offset=".9" stop-color="#14468a" stop-opacity="0"/>
		</linearGradient>
	</defs>
	<style>
		.s0 { fill: #233c82 } 
		.s1 { fill: #e30613 } 
		.s2 { fill: url(#g1) } 
	</style>
	<g id="Calque 1">
		<g id="&lt;Group&gt;">
			<path id="&lt;Path&gt;" class="s0" d="m1152.8 322.1h144.6l-20.7 43.7h-38.3l4.2-9.2h-10.6l-39.7 83.6h10.8l-16.4 34.4h-67.9l16.3-34.4h10.2l39.7-83.6h-10.2l-4.4 9.2h-38.3z"/>
			<path id="&lt;Compound Path&gt;" fill-rule="evenodd" class="s0" d="m1104.4 385.7l-16 10 6.6 9.8-16.4 34.7h10.3l-16.3 34.4h-57.4l26.9-56.7-2.9-5h-23.3l-12.9 27.3h10.1l-16.2 34.4h-67.5l16.3-34.4h10.3l39.6-83.6h-10.2l16.4-34.5h105.7l15.5 24.5zm-35.5-24.1l-3-5h-23.3l-10.3 21.9h23.2l7.7-5z"/>
			<path id="&lt;Compound Path&gt;" fill-rule="evenodd" class="s0" d="m975.7 346.6l-49.1 103.5-39 24.5h-75l-15.8-24.5 49.2-103.5 38.9-24.5h75.1zm-54.2 15l-3.2-5h-24.6l-7.9 5-34.9 73.6 3.2 5h24.6l7.9-5z"/>
			<path id="&lt;Compound Path&gt;" fill-rule="evenodd" class="s0" d="m828.2 346.5l-21.8 45.9-38.6 24.2h-48.5l-11.1 23.6h10.2l-16.4 34.4h-67.4l16.3-34.4h10.3l39.6-83.6h-10.2l16.4-34.5h105.7zm-54.2 15l-2.9-5h-23.3l-12.2 25.7h23.3l7.5-4.7z"/>
		</g>
		<g id="&lt;Group&gt;">
			<path id="&lt;Path&gt;" class="s0" d="m676.2 343.9h-51.9l10.3-20-2.6-6.4h-27.8l-9.5 6.7-10.4 20.5 3 6h55.4l13.7 32.2-30 58.9-46.6 32.8h-83.4l-13.8-31.6 2.7-5.4 17.1-34h52.1l-9.7 19 2.8 6.5h27.8l9.1-6.5 9.9-19.6-2.5-6.3h-55.8l-13.8-31.8 30.4-59.9 46.7-33.2h83.4l13.7 32z"/>
		</g>
		<g id="&lt;Group&gt;">
			<path id="&lt;Path&gt;" class="s1" d="m925 163.8c-3.6 70.8 53.1 72.5 63.7 63.1 7.1-2.9 20.7-16.5 24.2-20.6 3.5-4.2 7.7-4.2 7.7-4.2h14.1c0 0 21.8 41.3 24.2 45.5 2.4 4.1 2.4 5.3 0 12.3-7.7 19.5-59 66.7-130.4 49-71.4-17.7-96.1-92-84.9-168.1 13.2-89.8 79-140.4 139.2-140.4 60.2 0 83.8 31.8 92 40.1 8.3 8.2 5.3 16.5 5.3 16.5l-35.9 59.6h-14.2c-23-34.8-43.1-30.7-43.1-30.7 0 0-55.4 0-61.9 77.9z"/>
			<path id="&lt;Compound Path&gt;" fill-rule="evenodd" class="s1" d="m471.9 305.4h-86.7l-22.4-95c0 0-1.8-7.1-10.1-7.1-8.2 0-10 8.9-10 8.9l-7.1 93.8h-89.7l34.5-298.2c0 0 136 0.2 142.5 0.2 6.5 0 66.7 0 66.7 82 0 82-49.6 100.3-49.6 100.3zm-95.5-236.5c-4.7 0-20.7 0-20.7 0l-6.5 78.4h25.4c0 0 27.1-2.3 28.9-36 1.8-33.6-20-42.4-27.1-42.4z"/>
			<path id="&lt;Path&gt;" class="s1" d="m736.8 10.4h76.7l-27.7 295h-79.1l7.7-112.1-29.3 62.5h-2.3-63.3l-17.8-56-6.2 55.1-5.3 3.8-46.8 33.3-3.2 2.2-1.8 3.6-3.9 7.6h-22.5l33.1-295.6h74.3l43.6 142.8z"/>
		</g>
		<path id="&lt;Path&gt;" class="s2" d="m465 442.6h-464.3v-39.1h483.8l-13.5 26.9-2.7 5.4-3.3 6.7z"/>
	</g>
</svg>